<?xml version="1.0" encoding="UTF-8"?><svg xmlns="http://www.w3.org/2000/svg" xmlns:xlink="http://www.w3.org/1999/xlink" clip-rule="evenodd" stroke-miterlimit="4.00" viewBox="0 0 1024 768"><desc>SVG generated by Keynote</desc><defs></defs><g transform="matrix(1.00, 0.00, -0.00, -1.00, 0.0, 768.0)"><path d="M 0.0 0.0 L 1024.0 0.0 L 1024.0 768.0 L 0.0 768.0 Z M 0.0 0.0 " fill="#213A5E"></path><text xml:space="preserve" font-family="Futura-Medium" font-size="36.0" fill="#EBCCD4" transform="matrix(1.00, 0.00, -0.00, -1.00, 532.0, 33.0)">E</text><text xml:space="preserve" font-family="Futura-Medium" font-size="36.0" fill="#EBCCD4" transform="matrix(1.00, 0.00, -0.00, -1.00, 552.4, 33.0)">m</text><text xml:space="preserve" font-family="Futura-Medium" font-size="36.0" fill="#EBCCD4" transform="matrix(1.00, 0.00, -0.00, -1.00, 580.8, 33.0)">i</text><text xml:space="preserve" font-family="Futura-Medium" font-size="36.0" fill="#EBCCD4" transform="matrix(1.00, 0.00, -0.00, -1.00, 589.8, 33.0)">l</text><text xml:space="preserve" font-family="Futura-Medium" font-size="36.0" fill="#EBCCD4" transform="matrix(1.00, 0.00, -0.00, -1.00, 599.1, 33.0)">y</text><text xml:space="preserve" font-family="Futura-Medium" font-size="36.0" fill="#EBCCD4" transform="matrix(1.00, 0.00, -0.00, -1.00, 618.7, 33.0)"> </text><text xml:space="preserve" font-family="Futura-Medium" font-size="36.0" fill="#EBCCD4" transform="matrix(1.00, 0.00, -0.00, -1.00, 629.8, 33.0)">P</text><text xml:space="preserve" font-family="Futura-Medium" font-size="36.0" fill="#EBCCD4" transform="matrix(1.00, 0.00, -0.00, -1.00, 649.2, 33.0)">l</text><text xml:space="preserve" font-family="Futura-Medium" font-size="36.0" fill="#EBCCD4" transform="matrix(1.00, 0.00, -0.00, -1.00, 658.2, 33.0)">u</text><text xml:space="preserve" font-family="Futura-Medium" font-size="36.0" fill="#EBCCD4" transform="matrix(1.00, 0.00, -0.00, -1.00, 677.8, 33.0)">m</text><text xml:space="preserve" font-family="Futura-Medium" font-size="36.0" fill="#EBCCD4" transform="matrix(1.00, 0.00, -0.00, -1.00, 706.3, 33.0)">m</text><text xml:space="preserve" font-family="Futura-Medium" font-size="36.0" fill="#EBCCD4" transform="matrix(1.00, 0.00, -0.00, -1.00, 734.7, 33.0)">e</text><text xml:space="preserve" font-family="Futura-Medium" font-size="36.0" fill="#EBCCD4" transform="matrix(1.00, 0.00, -0.00, -1.00, 754.7, 33.0)">r</text><text xml:space="preserve" font-family="Futura-Medium" font-size="36.0" fill="#EBCCD4" transform="matrix(1.00, 0.00, -0.00, -1.00, 768.1, 33.0)"> </text><text xml:space="preserve" font-family="Futura-Medium" font-size="36.0" fill="#EBCCD4" transform="matrix(1.00, 0.00, -0.00, -1.00, 779.2, 33.0)">-</text><text xml:space="preserve" font-family="Futura-Medium" font-size="36.0" fill="#EBCCD4" transform="matrix(1.00, 0.00, -0.00, -1.00, 787.1, 33.0)"> </text><text xml:space="preserve" font-family="Futura-Medium" font-size="36.0" fill="#EBCCD4" transform="matrix(1.00, 0.00, -0.00, -1.00, 798.2, 33.0)">@</text><text xml:space="preserve" font-family="Futura-Medium" font-size="36.0" fill="#EBCCD4" transform="matrix(1.00, 0.00, -0.00, -1.00, 829.9, 33.0)">e</text><text xml:space="preserve" font-family="Futura-Medium" font-size="36.0" fill="#EBCCD4" transform="matrix(1.00, 0.00, -0.00, -1.00, 849.8, 33.0)">m</text><text xml:space="preserve" font-family="Futura-Medium" font-size="36.0" fill="#EBCCD4" transform="matrix(1.00, 0.00, -0.00, -1.00, 878.7, 33.0)">p</text><text xml:space="preserve" font-family="Futura-Medium" font-size="36.0" fill="#EBCCD4" transform="matrix(1.00, 0.00, -0.00, -1.00, 900.3, 33.0)">l</text><text xml:space="preserve" font-family="Futura-Medium" font-size="36.0" fill="#EBCCD4" transform="matrix(1.00, 0.00, -0.00, -1.00, 909.2, 33.0)">u</text><text xml:space="preserve" font-family="Futura-Medium" font-size="36.0" fill="#EBCCD4" transform="matrix(1.00, 0.00, -0.00, -1.00, 928.9, 33.0)">m</text><text xml:space="preserve" font-family="Futura-Medium" font-size="36.0" fill="#EBCCD4" transform="matrix(1.00, 0.00, -0.00, -1.00, 957.3, 33.0)">s</text><text xml:space="preserve" font-family="Soria-Soria" font-size="80.0" fill="#EBCCD4" transform="matrix(1.00, 0.00, -0.00, -1.00, 150.0, 636.0)">1</text><text xml:space="preserve" font-family="Soria-Soria" font-size="80.0" fill="#EBCCD4" transform="matrix(1.00, 0.00, -0.00, -1.00, 172.5, 636.0)">9</text><text xml:space="preserve" font-family="Soria-Soria" font-size="80.0" fill="#EBCCD4" transform="matrix(1.00, 0.00, -0.00, -1.00, 210.7, 636.0)">6</text><text xml:space="preserve" font-family="Soria-Soria" font-size="80.0" fill="#EBCCD4" transform="matrix(1.00, 0.00, -0.00, -1.00, 250.2, 636.0)">8</text><text xml:space="preserve" font-family="Soria-Soria" font-size="80.0" fill="#EBCCD4" transform="matrix(1.00, 0.00, -0.00, -1.00, 285.1, 636.0)"> </text><text xml:space="preserve" font-family="LucidaGrande" font-size="80.0" fill="#EBCCD4" transform="matrix(1.00, 0.00, -0.00, -1.00, 305.7, 636.0)">-</text><text xml:space="preserve" font-family="Soria-Soria" font-size="80.0" fill="#EBCCD4" transform="matrix(1.00, 0.00, -0.00, -1.00, 352.0, 636.0)"> </text><text xml:space="preserve" font-family="Soria-Soria" font-size="80.0" fill="#EBCCD4" transform="matrix(1.00, 0.00, -0.00, -1.00, 372.5, 636.0)">T</text><text xml:space="preserve" font-family="Soria-Soria" font-size="80.0" fill="#EBCCD4" transform="matrix(1.00, 0.00, -0.00, -1.00, 417.5, 636.0)">h</text><text xml:space="preserve" font-family="Soria-Soria" font-size="80.0" fill="#EBCCD4" transform="matrix(1.00, 0.00, -0.00, -1.00, 450.8, 636.0)">e</text><text xml:space="preserve" font-family="Soria-Soria" font-size="80.0" fill="#EBCCD4" transform="matrix(1.00, 0.00, -0.00, -1.00, 481.6, 636.0)"> </text><text xml:space="preserve" font-family="Soria-Soria" font-size="80.0" fill="#EBCCD4" transform="matrix(1.00, 0.00, -0.00, -1.00, 502.2, 636.0)">A</text><text xml:space="preserve" font-family="Soria-Soria" font-size="80.0" fill="#EBCCD4" transform="matrix(1.00, 0.00, -0.00, -1.00, 547.2, 636.0)">r</text><text xml:space="preserve" font-family="Soria-Soria" font-size="80.0" fill="#EBCCD4" transform="matrix(1.00, 0.00, -0.00, -1.00, 574.7, 636.0)">c</text><text xml:space="preserve" font-family="Soria-Soria" font-size="80.0" fill="#EBCCD4" transform="matrix(1.00, 0.00, -0.00, -1.00, 606.4, 636.0)">h</text><text xml:space="preserve" font-family="Soria-Soria" font-size="80.0" fill="#EBCCD4" transform="matrix(1.00, 0.00, -0.00, -1.00, 641.5, 636.0)">i</text><text xml:space="preserve" font-family="Soria-Soria" font-size="80.0" fill="#EBCCD4" transform="matrix(1.00, 0.00, -0.00, -1.00, 658.2, 636.0)">t</text><text xml:space="preserve" font-family="Soria-Soria" font-size="80.0" fill="#EBCCD4" transform="matrix(1.00, 0.00, -0.00, -1.00, 678.2, 636.0)">e</text><text xml:space="preserve" font-family="Soria-Soria" font-size="80.0" fill="#EBCCD4" transform="matrix(1.00, 0.00, -0.00, -1.00, 709.0, 636.0)">c</text><text xml:space="preserve" font-family="Soria-Soria" font-size="80.0" fill="#EBCCD4" transform="matrix(1.00, 0.00, -0.00, -1.00, 740.8, 636.0)">t</text><text xml:space="preserve" font-family="Soria-Soria" font-size="80.0" fill="#EBCCD4" transform="matrix(1.00, 0.00, -0.00, -1.00, 762.4, 636.0)">u</text><text xml:space="preserve" font-family="Soria-Soria" font-size="80.0" fill="#EBCCD4" transform="matrix(1.00, 0.00, -0.00, -1.00, 796.5, 636.0)">r</text><text xml:space="preserve" font-family="Soria-Soria" font-size="80.0" fill="#EBCCD4" transform="matrix(1.00, 0.00, -0.00, -1.00, 824.8, 636.0)">a</text><text xml:space="preserve" font-family="Soria-Soria" font-size="80.0" fill="#EBCCD4" transform="matrix(1.00, 0.00, -0.00, -1.00, 858.2, 636.0)">l</text><text xml:space="preserve" font-family="Soria-Soria" font-size="80.0" fill="#EBCCD4" transform="matrix(1.00, 0.00, -0.00, -1.00, 874.8, 636.0)"> </text><text xml:space="preserve" font-family="Soria-Soria" font-size="80.0" fill="#EBCCD4" transform="matrix(1.00, 0.00, -0.00, -1.00, 332.0, 540.0)">B</text><text xml:space="preserve" font-family="Soria-Soria" font-size="80.0" fill="#EBCCD4" transform="matrix(1.00, 0.00, -0.00, -1.00, 370.3, 540.0)">a</text><text xml:space="preserve" font-family="Soria-Soria" font-size="80.0" fill="#EBCCD4" transform="matrix(1.00, 0.00, -0.00, -1.00, 403.7, 540.0)">r</text><text xml:space="preserve" font-family="Soria-Soria" font-size="80.0" fill="#EBCCD4" transform="matrix(1.00, 0.00, -0.00, -1.00, 434.5, 540.0)">r</text><text xml:space="preserve" font-family="Soria-Soria" font-size="80.0" fill="#EBCCD4" transform="matrix(1.00, 0.00, -0.00, -1.00, 465.3, 540.0)">i</text><text xml:space="preserve" font-family="Soria-Soria" font-size="80.0" fill="#EBCCD4" transform="matrix(1.00, 0.00, -0.00, -1.00, 483.7, 540.0)">e</text><text xml:space="preserve" font-family="Soria-Soria" font-size="80.0" fill="#EBCCD4" transform="matrix(1.00, 0.00, -0.00, -1.00, 513.7, 540.0)">r</text><text xml:space="preserve" font-family="Soria-Soria" font-size="80.0" fill="#EBCCD4" transform="matrix(1.00, 0.00, -0.00, -1.00, 541.9, 540.0)">s</text><text xml:space="preserve" font-family="Soria-Soria" font-size="80.0" fill="#EBCCD4" transform="matrix(1.00, 0.00, -0.00, -1.00, 574.4, 540.0)"> </text><text xml:space="preserve" font-family="Soria-Soria" font-size="80.0" fill="#EBCCD4" transform="matrix(1.00, 0.00, -0.00, -1.00, 595.0, 540.0)">A</text><text xml:space="preserve" font-family="Soria-Soria" font-size="80.0" fill="#EBCCD4" transform="matrix(1.00, 0.00, -0.00, -1.00, 640.0, 540.0)">c</text><text xml:space="preserve" font-family="Soria-Soria" font-size="80.0" fill="#EBCCD4" transform="matrix(1.00, 0.00, -0.00, -1.00, 671.8, 540.0)">t</text></g></svg>