<?xml version="1.0" encoding="UTF-8"?><svg xmlns="http://www.w3.org/2000/svg" xmlns:xlink="http://www.w3.org/1999/xlink" clip-rule="evenodd" stroke-miterlimit="4.00" viewBox="0 0 1024 768"><desc>SVG generated by Keynote</desc><defs></defs><g transform="matrix(1.00, 0.00, -0.00, -1.00, 0.0, 768.0)"><path d="M 0.0 0.0 L 1024.0 0.0 L 1024.0 768.0 L 0.0 768.0 Z M 0.0 0.0 " fill="#213A5E"></path><text xml:space="preserve" font-family="Futura-Medium" font-size="36.0" fill="#EBCCD4" transform="matrix(1.00, 0.00, -0.00, -1.00, 532.0, 33.0)">E</text><text xml:space="preserve" font-family="Futura-Medium" font-size="36.0" fill="#EBCCD4" transform="matrix(1.00, 0.00, -0.00, -1.00, 552.4, 33.0)">m</text><text xml:space="preserve" font-family="Futura-Medium" font-size="36.0" fill="#EBCCD4" transform="matrix(1.00, 0.00, -0.00, -1.00, 580.8, 33.0)">i</text><text xml:space="preserve" font-family="Futura-Medium" font-size="36.0" fill="#EBCCD4" transform="matrix(1.00, 0.00, -0.00, -1.00, 589.8, 33.0)">l</text><text xml:space="preserve" font-family="Futura-Medium" font-size="36.0" fill="#EBCCD4" transform="matrix(1.00, 0.00, -0.00, -1.00, 599.1, 33.0)">y</text><text xml:space="preserve" font-family="Futura-Medium" font-size="36.0" fill="#EBCCD4" transform="matrix(1.00, 0.00, -0.00, -1.00, 618.7, 33.0)"> </text><text xml:space="preserve" font-family="Futura-Medium" font-size="36.0" fill="#EBCCD4" transform="matrix(1.00, 0.00, -0.00, -1.00, 629.8, 33.0)">P</text><text xml:space="preserve" font-family="Futura-Medium" font-size="36.0" fill="#EBCCD4" transform="matrix(1.00, 0.00, -0.00, -1.00, 649.2, 33.0)">l</text><text xml:space="preserve" font-family="Futura-Medium" font-size="36.0" fill="#EBCCD4" transform="matrix(1.00, 0.00, -0.00, -1.00, 658.2, 33.0)">u</text><text xml:space="preserve" font-family="Futura-Medium" font-size="36.0" fill="#EBCCD4" transform="matrix(1.00, 0.00, -0.00, -1.00, 677.8, 33.0)">m</text><text xml:space="preserve" font-family="Futura-Medium" font-size="36.0" fill="#EBCCD4" transform="matrix(1.00, 0.00, -0.00, -1.00, 706.3, 33.0)">m</text><text xml:space="preserve" font-family="Futura-Medium" font-size="36.0" fill="#EBCCD4" transform="matrix(1.00, 0.00, -0.00, -1.00, 734.7, 33.0)">e</text><text xml:space="preserve" font-family="Futura-Medium" font-size="36.0" fill="#EBCCD4" transform="matrix(1.00, 0.00, -0.00, -1.00, 754.7, 33.0)">r</text><text xml:space="preserve" font-family="Futura-Medium" font-size="36.0" fill="#EBCCD4" transform="matrix(1.00, 0.00, -0.00, -1.00, 768.1, 33.0)"> </text><text xml:space="preserve" font-family="Futura-Medium" font-size="36.0" fill="#EBCCD4" transform="matrix(1.00, 0.00, -0.00, -1.00, 779.2, 33.0)">-</text><text xml:space="preserve" font-family="Futura-Medium" font-size="36.0" fill="#EBCCD4" transform="matrix(1.00, 0.00, -0.00, -1.00, 787.1, 33.0)"> </text><text xml:space="preserve" font-family="Futura-Medium" font-size="36.0" fill="#EBCCD4" transform="matrix(1.00, 0.00, -0.00, -1.00, 798.2, 33.0)">@</text><text xml:space="preserve" font-family="Futura-Medium" font-size="36.0" fill="#EBCCD4" transform="matrix(1.00, 0.00, -0.00, -1.00, 829.9, 33.0)">e</text><text xml:space="preserve" font-family="Futura-Medium" font-size="36.0" fill="#EBCCD4" transform="matrix(1.00, 0.00, -0.00, -1.00, 849.8, 33.0)">m</text><text xml:space="preserve" font-family="Futura-Medium" font-size="36.0" fill="#EBCCD4" transform="matrix(1.00, 0.00, -0.00, -1.00, 878.7, 33.0)">p</text><text xml:space="preserve" font-family="Futura-Medium" font-size="36.0" fill="#EBCCD4" transform="matrix(1.00, 0.00, -0.00, -1.00, 900.3, 33.0)">l</text><text xml:space="preserve" font-family="Futura-Medium" font-size="36.0" fill="#EBCCD4" transform="matrix(1.00, 0.00, -0.00, -1.00, 909.2, 33.0)">u</text><text xml:space="preserve" font-family="Futura-Medium" font-size="36.0" fill="#EBCCD4" transform="matrix(1.00, 0.00, -0.00, -1.00, 928.9, 33.0)">m</text><text xml:space="preserve" font-family="Futura-Medium" font-size="36.0" fill="#EBCCD4" transform="matrix(1.00, 0.00, -0.00, -1.00, 957.3, 33.0)">s</text><g><clipPath id="clip-2"><path d="M -178.0 790.0 L 1255.0 790.0 L 1255.0 -72.0 L -178.0 -72.0 Z M -178.2 789.7 "></path></clipPath><g clip-path="url(#clip-2)"><image xlink:href="497524A787F142F9C08DFB7D294C53E9.jpeg" width="1109.00" height="767.00" transform="matrix(1.12, 0.00, -0.00, -1.12, -110.0, 790.0)"></image></g></g></g></svg>