<?xml version="1.0" encoding="UTF-8"?><svg xmlns="http://www.w3.org/2000/svg" xmlns:xlink="http://www.w3.org/1999/xlink" clip-rule="evenodd" stroke-miterlimit="4.00" viewBox="0 0 1024 768"><desc>SVG generated by Keynote</desc><defs></defs><g transform="matrix(1.00, 0.00, -0.00, -1.00, 0.0, 768.0)"><path d="M 0.0 0.0 L 1024.0 0.0 L 1024.0 768.0 L 0.0 768.0 Z M 0.0 0.0 " fill="#213A5E"></path><text xml:space="preserve" font-family="Futura-Medium" font-size="36.0" fill="#EBCCD4" transform="matrix(1.00, 0.00, -0.00, -1.00, 532.0, 33.0)">E</text><text xml:space="preserve" font-family="Futura-Medium" font-size="36.0" fill="#EBCCD4" transform="matrix(1.00, 0.00, -0.00, -1.00, 552.4, 33.0)">m</text><text xml:space="preserve" font-family="Futura-Medium" font-size="36.0" fill="#EBCCD4" transform="matrix(1.00, 0.00, -0.00, -1.00, 580.8, 33.0)">i</text><text xml:space="preserve" font-family="Futura-Medium" font-size="36.0" fill="#EBCCD4" transform="matrix(1.00, 0.00, -0.00, -1.00, 589.8, 33.0)">l</text><text xml:space="preserve" font-family="Futura-Medium" font-size="36.0" fill="#EBCCD4" transform="matrix(1.00, 0.00, -0.00, -1.00, 599.1, 33.0)">y</text><text xml:space="preserve" font-family="Futura-Medium" font-size="36.0" fill="#EBCCD4" transform="matrix(1.00, 0.00, -0.00, -1.00, 618.7, 33.0)"> </text><text xml:space="preserve" font-family="Futura-Medium" font-size="36.0" fill="#EBCCD4" transform="matrix(1.00, 0.00, -0.00, -1.00, 629.8, 33.0)">P</text><text xml:space="preserve" font-family="Futura-Medium" font-size="36.0" fill="#EBCCD4" transform="matrix(1.00, 0.00, -0.00, -1.00, 649.2, 33.0)">l</text><text xml:space="preserve" font-family="Futura-Medium" font-size="36.0" fill="#EBCCD4" transform="matrix(1.00, 0.00, -0.00, -1.00, 658.2, 33.0)">u</text><text xml:space="preserve" font-family="Futura-Medium" font-size="36.0" fill="#EBCCD4" transform="matrix(1.00, 0.00, -0.00, -1.00, 677.8, 33.0)">m</text><text xml:space="preserve" font-family="Futura-Medium" font-size="36.0" fill="#EBCCD4" transform="matrix(1.00, 0.00, -0.00, -1.00, 706.3, 33.0)">m</text><text xml:space="preserve" font-family="Futura-Medium" font-size="36.0" fill="#EBCCD4" transform="matrix(1.00, 0.00, -0.00, -1.00, 734.7, 33.0)">e</text><text xml:space="preserve" font-family="Futura-Medium" font-size="36.0" fill="#EBCCD4" transform="matrix(1.00, 0.00, -0.00, -1.00, 754.7, 33.0)">r</text><text xml:space="preserve" font-family="Futura-Medium" font-size="36.0" fill="#EBCCD4" transform="matrix(1.00, 0.00, -0.00, -1.00, 768.1, 33.0)"> </text><text xml:space="preserve" font-family="Futura-Medium" font-size="36.0" fill="#EBCCD4" transform="matrix(1.00, 0.00, -0.00, -1.00, 779.2, 33.0)">-</text><text xml:space="preserve" font-family="Futura-Medium" font-size="36.0" fill="#EBCCD4" transform="matrix(1.00, 0.00, -0.00, -1.00, 787.1, 33.0)"> </text><text xml:space="preserve" font-family="Futura-Medium" font-size="36.0" fill="#EBCCD4" transform="matrix(1.00, 0.00, -0.00, -1.00, 798.2, 33.0)">@</text><text xml:space="preserve" font-family="Futura-Medium" font-size="36.0" fill="#EBCCD4" transform="matrix(1.00, 0.00, -0.00, -1.00, 829.9, 33.0)">e</text><text xml:space="preserve" font-family="Futura-Medium" font-size="36.0" fill="#EBCCD4" transform="matrix(1.00, 0.00, -0.00, -1.00, 849.8, 33.0)">m</text><text xml:space="preserve" font-family="Futura-Medium" font-size="36.0" fill="#EBCCD4" transform="matrix(1.00, 0.00, -0.00, -1.00, 878.7, 33.0)">p</text><text xml:space="preserve" font-family="Futura-Medium" font-size="36.0" fill="#EBCCD4" transform="matrix(1.00, 0.00, -0.00, -1.00, 900.3, 33.0)">l</text><text xml:space="preserve" font-family="Futura-Medium" font-size="36.0" fill="#EBCCD4" transform="matrix(1.00, 0.00, -0.00, -1.00, 909.2, 33.0)">u</text><text xml:space="preserve" font-family="Futura-Medium" font-size="36.0" fill="#EBCCD4" transform="matrix(1.00, 0.00, -0.00, -1.00, 928.9, 33.0)">m</text><text xml:space="preserve" font-family="Futura-Medium" font-size="36.0" fill="#EBCCD4" transform="matrix(1.00, 0.00, -0.00, -1.00, 957.3, 33.0)">s</text><text xml:space="preserve" font-family="Futura-MediumItalic" font-style="italic" font-size="24.0" fill="#EBCCD4" transform="matrix(1.00, 0.00, -0.00, -1.00, 431.0, 396.0)">–</text><text xml:space="preserve" font-family="Futura-MediumItalic" font-style="italic" font-size="24.0" fill="#EBCCD4" transform="matrix(1.00, 0.00, -0.00, -1.00, 446.4, 396.0)"> </text><text xml:space="preserve" font-family="Futura-MediumItalic" font-style="italic" font-size="24.0" fill="#EBCCD4" transform="matrix(1.00, 0.00, -0.00, -1.00, 453.8, 396.0)">D</text><text xml:space="preserve" font-family="Futura-MediumItalic" font-style="italic" font-size="24.0" fill="#EBCCD4" transform="matrix(1.00, 0.00, -0.00, -1.00, 471.0, 396.0)">m</text><text xml:space="preserve" font-family="Futura-MediumItalic" font-style="italic" font-size="24.0" fill="#EBCCD4" transform="matrix(1.00, 0.00, -0.00, -1.00, 490.0, 396.0)">i</text><text xml:space="preserve" font-family="Futura-MediumItalic" font-style="italic" font-size="24.0" fill="#EBCCD4" transform="matrix(1.00, 0.00, -0.00, -1.00, 496.2, 396.0)">t</text><text xml:space="preserve" font-family="Futura-MediumItalic" font-style="italic" font-size="24.0" fill="#EBCCD4" transform="matrix(1.00, 0.00, -0.00, -1.00, 503.3, 396.0)">r</text><text xml:space="preserve" font-family="Futura-MediumItalic" font-style="italic" font-size="24.0" fill="#EBCCD4" transform="matrix(1.00, 0.00, -0.00, -1.00, 512.7, 396.0)">i</text><text xml:space="preserve" font-family="Futura-MediumItalic" font-style="italic" font-size="24.0" fill="#EBCCD4" transform="matrix(1.00, 0.00, -0.00, -1.00, 518.9, 396.0)"> </text><text xml:space="preserve" font-family="Futura-MediumItalic" font-style="italic" font-size="24.0" fill="#EBCCD4" transform="matrix(1.00, 0.00, -0.00, -1.00, 526.3, 396.0)">B</text><text xml:space="preserve" font-family="Futura-MediumItalic" font-style="italic" font-size="24.0" fill="#EBCCD4" transform="matrix(1.00, 0.00, -0.00, -1.00, 540.3, 396.0)">e</text><text xml:space="preserve" font-family="Futura-MediumItalic" font-style="italic" font-size="24.0" fill="#EBCCD4" transform="matrix(1.00, 0.00, -0.00, -1.00, 553.7, 396.0)">l</text><text xml:space="preserve" font-family="Futura-MediumItalic" font-style="italic" font-size="24.0" fill="#EBCCD4" transform="matrix(1.00, 0.00, -0.00, -1.00, 559.9, 396.0)">s</text><text xml:space="preserve" font-family="Futura-MediumItalic" font-style="italic" font-size="24.0" fill="#EBCCD4" transform="matrix(1.00, 0.00, -0.00, -1.00, 569.6, 396.0)">e</text><text xml:space="preserve" font-family="Futura-MediumItalic" font-style="italic" font-size="24.0" fill="#EBCCD4" transform="matrix(1.00, 0.00, -0.00, -1.00, 583.1, 396.0)">r</text><text xml:space="preserve" font-family="Soria-Soria" font-size="68.0" fill="#EBCCD4" transform="matrix(1.00, 0.00, -0.00, -1.00, 181.0, 634.0)">“</text><text xml:space="preserve" font-family="Soria-Soria" font-size="68.0" fill="#EBCCD4" transform="matrix(1.00, 0.00, -0.00, -1.00, 197.1, 634.0)">D</text><text xml:space="preserve" font-family="Soria-Soria" font-size="68.0" fill="#EBCCD4" transform="matrix(1.00, 0.00, -0.00, -1.00, 231.0, 634.0)">i</text><text xml:space="preserve" font-family="Soria-Soria" font-size="68.0" fill="#EBCCD4" transform="matrix(1.00, 0.00, -0.00, -1.00, 246.7, 634.0)">s</text><text xml:space="preserve" font-family="Soria-Soria" font-size="68.0" fill="#EBCCD4" transform="matrix(1.00, 0.00, -0.00, -1.00, 274.3, 634.0)">a</text><text xml:space="preserve" font-family="Soria-Soria" font-size="68.0" fill="#EBCCD4" transform="matrix(1.00, 0.00, -0.00, -1.00, 302.7, 634.0)">b</text><text xml:space="preserve" font-family="Soria-Soria" font-size="68.0" fill="#EBCCD4" transform="matrix(1.00, 0.00, -0.00, -1.00, 331.8, 634.0)">i</text><text xml:space="preserve" font-family="Soria-Soria" font-size="68.0" fill="#EBCCD4" transform="matrix(1.00, 0.00, -0.00, -1.00, 347.4, 634.0)">l</text><text xml:space="preserve" font-family="Soria-Soria" font-size="68.0" fill="#EBCCD4" transform="matrix(1.00, 0.00, -0.00, -1.00, 361.5, 634.0)">i</text><text xml:space="preserve" font-family="Soria-Soria" font-size="68.0" fill="#EBCCD4" transform="matrix(1.00, 0.00, -0.00, -1.00, 375.8, 634.0)">t</text><text xml:space="preserve" font-family="Soria-Soria" font-size="68.0" fill="#EBCCD4" transform="matrix(1.00, 0.00, -0.00, -1.00, 392.8, 634.0)">y</text><text xml:space="preserve" font-family="Soria-Soria" font-size="68.0" fill="#EBCCD4" transform="matrix(1.00, 0.00, -0.00, -1.00, 421.5, 634.0)"> </text><text xml:space="preserve" font-family="Soria-Soria" font-size="68.0" fill="#EBCCD4" transform="matrix(1.00, 0.00, -0.00, -1.00, 439.0, 634.0)">i</text><text xml:space="preserve" font-family="Soria-Soria" font-size="68.0" fill="#EBCCD4" transform="matrix(1.00, 0.00, -0.00, -1.00, 454.6, 634.0)">s</text><text xml:space="preserve" font-family="Soria-Soria" font-size="68.0" fill="#EBCCD4" transform="matrix(1.00, 0.00, -0.00, -1.00, 482.2, 634.0)"> </text><text xml:space="preserve" font-family="Soria-Soria" font-size="68.0" fill="#EBCCD4" transform="matrix(1.00, 0.00, -0.00, -1.00, 499.7, 634.0)">t</text><text xml:space="preserve" font-family="Soria-Soria" font-size="68.0" fill="#EBCCD4" transform="matrix(1.00, 0.00, -0.00, -1.00, 518.1, 634.0)">h</text><text xml:space="preserve" font-family="Soria-Soria" font-size="68.0" fill="#EBCCD4" transform="matrix(1.00, 0.00, -0.00, -1.00, 546.5, 634.0)">e</text><text xml:space="preserve" font-family="Soria-Soria" font-size="68.0" fill="#EBCCD4" transform="matrix(1.00, 0.00, -0.00, -1.00, 572.7, 634.0)"> </text><text xml:space="preserve" font-family="Soria-Soria" font-size="68.0" fill="#EBCCD4" transform="matrix(1.00, 0.00, -0.00, -1.00, 590.2, 634.0)">d</text><text xml:space="preserve" font-family="Soria-Soria" font-size="68.0" fill="#EBCCD4" transform="matrix(1.00, 0.00, -0.00, -1.00, 618.5, 634.0)">i</text><text xml:space="preserve" font-family="Soria-Soria" font-size="68.0" fill="#EBCCD4" transform="matrix(1.00, 0.00, -0.00, -1.00, 634.2, 634.0)">s</text><text xml:space="preserve" font-family="Soria-Soria" font-size="68.0" fill="#EBCCD4" transform="matrix(1.00, 0.00, -0.00, -1.00, 661.8, 634.0)">c</text><text xml:space="preserve" font-family="Soria-Soria" font-size="68.0" fill="#EBCCD4" transform="matrix(1.00, 0.00, -0.00, -1.00, 688.1, 634.0)">o</text><text xml:space="preserve" font-family="Soria-Soria" font-size="68.0" fill="#EBCCD4" transform="matrix(1.00, 0.00, -0.00, -1.00, 714.3, 634.0)">n</text><text xml:space="preserve" font-family="Soria-Soria" font-size="68.0" fill="#EBCCD4" transform="matrix(1.00, 0.00, -0.00, -1.00, 744.0, 634.0)">n</text><text xml:space="preserve" font-family="Soria-Soria" font-size="68.0" fill="#EBCCD4" transform="matrix(1.00, 0.00, -0.00, -1.00, 772.4, 634.0)">e</text><text xml:space="preserve" font-family="Soria-Soria" font-size="68.0" fill="#EBCCD4" transform="matrix(1.00, 0.00, -0.00, -1.00, 798.6, 634.0)">c</text><text xml:space="preserve" font-family="Soria-Soria" font-size="68.0" fill="#EBCCD4" transform="matrix(1.00, 0.00, -0.00, -1.00, 825.6, 634.0)">t</text><text xml:space="preserve" font-family="Soria-Soria" font-size="68.0" fill="#EBCCD4" transform="matrix(1.00, 0.00, -0.00, -1.00, 842.6, 634.0)"> </text><text xml:space="preserve" font-family="Soria-Soria" font-size="68.0" fill="#EBCCD4" transform="matrix(1.00, 0.00, -0.00, -1.00, 116.0, 552.0)">b</text><text xml:space="preserve" font-family="Soria-Soria" font-size="68.0" fill="#EBCCD4" transform="matrix(1.00, 0.00, -0.00, -1.00, 145.1, 552.0)">e</text><text xml:space="preserve" font-family="Soria-Soria" font-size="68.0" fill="#EBCCD4" transform="matrix(1.00, 0.00, -0.00, -1.00, 171.3, 552.0)">t</text><text xml:space="preserve" font-family="Soria-Soria" font-size="68.0" fill="#EBCCD4" transform="matrix(1.00, 0.00, -0.00, -1.00, 188.3, 552.0)">w</text><text xml:space="preserve" font-family="Soria-Soria" font-size="68.0" fill="#EBCCD4" transform="matrix(1.00, 0.00, -0.00, -1.00, 226.4, 552.0)">e</text><text xml:space="preserve" font-family="Soria-Soria" font-size="68.0" fill="#EBCCD4" transform="matrix(1.00, 0.00, -0.00, -1.00, 252.5, 552.0)">e</text><text xml:space="preserve" font-family="Soria-Soria" font-size="68.0" fill="#EBCCD4" transform="matrix(1.00, 0.00, -0.00, -1.00, 278.7, 552.0)">n</text><text xml:space="preserve" font-family="Soria-Soria" font-size="68.0" fill="#EBCCD4" transform="matrix(1.00, 0.00, -0.00, -1.00, 308.4, 552.0)"> </text><text xml:space="preserve" font-family="Soria-Soria" font-size="68.0" fill="#EBCCD4" transform="matrix(1.00, 0.00, -0.00, -1.00, 325.9, 552.0)">p</text><text xml:space="preserve" font-family="Soria-Soria" font-size="68.0" fill="#EBCCD4" transform="matrix(1.00, 0.00, -0.00, -1.00, 355.7, 552.0)">e</text><text xml:space="preserve" font-family="Soria-Soria" font-size="68.0" fill="#EBCCD4" transform="matrix(1.00, 0.00, -0.00, -1.00, 381.9, 552.0)">o</text><text xml:space="preserve" font-family="Soria-Soria" font-size="68.0" fill="#EBCCD4" transform="matrix(1.00, 0.00, -0.00, -1.00, 406.0, 552.0)">p</text><text xml:space="preserve" font-family="Soria-Soria" font-size="68.0" fill="#EBCCD4" transform="matrix(1.00, 0.00, -0.00, -1.00, 435.8, 552.0)">l</text><text xml:space="preserve" font-family="Soria-Soria" font-size="68.0" fill="#EBCCD4" transform="matrix(1.00, 0.00, -0.00, -1.00, 448.3, 552.0)">e</text><text xml:space="preserve" font-family="Soria-Soria" font-size="68.0" fill="#EBCCD4" transform="matrix(1.00, 0.00, -0.00, -1.00, 474.5, 552.0)">’</text><text xml:space="preserve" font-family="Soria-Soria" font-size="68.0" fill="#EBCCD4" transform="matrix(1.00, 0.00, -0.00, -1.00, 480.7, 552.0)">s</text><text xml:space="preserve" font-family="Soria-Soria" font-size="68.0" fill="#EBCCD4" transform="matrix(1.00, 0.00, -0.00, -1.00, 508.3, 552.0)"> </text><text xml:space="preserve" font-family="Soria-Soria" font-size="68.0" fill="#EBCCD4" transform="matrix(1.00, 0.00, -0.00, -1.00, 525.8, 552.0)">a</text><text xml:space="preserve" font-family="Soria-Soria" font-size="68.0" fill="#EBCCD4" transform="matrix(1.00, 0.00, -0.00, -1.00, 554.1, 552.0)">b</text><text xml:space="preserve" font-family="Soria-Soria" font-size="68.0" fill="#EBCCD4" transform="matrix(1.00, 0.00, -0.00, -1.00, 583.2, 552.0)">i</text><text xml:space="preserve" font-family="Soria-Soria" font-size="68.0" fill="#EBCCD4" transform="matrix(1.00, 0.00, -0.00, -1.00, 598.9, 552.0)">l</text><text xml:space="preserve" font-family="Soria-Soria" font-size="68.0" fill="#EBCCD4" transform="matrix(1.00, 0.00, -0.00, -1.00, 613.0, 552.0)">i</text><text xml:space="preserve" font-family="Soria-Soria" font-size="68.0" fill="#EBCCD4" transform="matrix(1.00, 0.00, -0.00, -1.00, 627.2, 552.0)">t</text><text xml:space="preserve" font-family="Soria-Soria" font-size="68.0" fill="#EBCCD4" transform="matrix(1.00, 0.00, -0.00, -1.00, 644.2, 552.0)">i</text><text xml:space="preserve" font-family="Soria-Soria" font-size="68.0" fill="#EBCCD4" transform="matrix(1.00, 0.00, -0.00, -1.00, 659.9, 552.0)">e</text><text xml:space="preserve" font-family="Soria-Soria" font-size="68.0" fill="#EBCCD4" transform="matrix(1.00, 0.00, -0.00, -1.00, 686.0, 552.0)">s</text><text xml:space="preserve" font-family="Soria-Soria" font-size="68.0" fill="#EBCCD4" transform="matrix(1.00, 0.00, -0.00, -1.00, 713.7, 552.0)"> </text><text xml:space="preserve" font-family="Soria-Soria" font-size="68.0" fill="#EBCCD4" transform="matrix(1.00, 0.00, -0.00, -1.00, 731.1, 552.0)">a</text><text xml:space="preserve" font-family="Soria-Soria" font-size="68.0" fill="#EBCCD4" transform="matrix(1.00, 0.00, -0.00, -1.00, 758.7, 552.0)">n</text><text xml:space="preserve" font-family="Soria-Soria" font-size="68.0" fill="#EBCCD4" transform="matrix(1.00, 0.00, -0.00, -1.00, 788.5, 552.0)">d</text><text xml:space="preserve" font-family="Soria-Soria" font-size="68.0" fill="#EBCCD4" transform="matrix(1.00, 0.00, -0.00, -1.00, 816.8, 552.0)"> </text><text xml:space="preserve" font-family="Soria-Soria" font-size="68.0" fill="#EBCCD4" transform="matrix(1.00, 0.00, -0.00, -1.00, 834.3, 552.0)">t</text><text xml:space="preserve" font-family="Soria-Soria" font-size="68.0" fill="#EBCCD4" transform="matrix(1.00, 0.00, -0.00, -1.00, 852.7, 552.0)">h</text><text xml:space="preserve" font-family="Soria-Soria" font-size="68.0" fill="#EBCCD4" transform="matrix(1.00, 0.00, -0.00, -1.00, 881.1, 552.0)">e</text><text xml:space="preserve" font-family="Soria-Soria" font-size="68.0" fill="#EBCCD4" transform="matrix(1.00, 0.00, -0.00, -1.00, 907.2, 552.0)"> </text><text xml:space="preserve" font-family="Soria-Soria" font-size="68.0" fill="#EBCCD4" transform="matrix(1.00, 0.00, -0.00, -1.00, 287.0, 469.0)">b</text><text xml:space="preserve" font-family="Soria-Soria" font-size="68.0" fill="#EBCCD4" transform="matrix(1.00, 0.00, -0.00, -1.00, 316.1, 469.0)">u</text><text xml:space="preserve" font-family="Soria-Soria" font-size="68.0" fill="#EBCCD4" transform="matrix(1.00, 0.00, -0.00, -1.00, 345.1, 469.0)">i</text><text xml:space="preserve" font-family="Soria-Soria" font-size="68.0" fill="#EBCCD4" transform="matrix(1.00, 0.00, -0.00, -1.00, 360.7, 469.0)">l</text><text xml:space="preserve" font-family="Soria-Soria" font-size="68.0" fill="#EBCCD4" transform="matrix(1.00, 0.00, -0.00, -1.00, 374.9, 469.0)">t</text><text xml:space="preserve" font-family="LucidaGrande" font-size="68.0" fill="#EBCCD4" transform="matrix(1.00, 0.00, -0.00, -1.00, 391.9, 469.0)">-</text><text xml:space="preserve" font-family="Soria-Soria" font-size="68.0" fill="#EBCCD4" transform="matrix(1.00, 0.00, -0.00, -1.00, 431.2, 469.0)">e</text><text xml:space="preserve" font-family="Soria-Soria" font-size="68.0" fill="#EBCCD4" transform="matrix(1.00, 0.00, -0.00, -1.00, 457.4, 469.0)">n</text><text xml:space="preserve" font-family="Soria-Soria" font-size="68.0" fill="#EBCCD4" transform="matrix(1.00, 0.00, -0.00, -1.00, 485.0, 469.0)">v</text><text xml:space="preserve" font-family="Soria-Soria" font-size="68.0" fill="#EBCCD4" transform="matrix(1.00, 0.00, -0.00, -1.00, 511.9, 469.0)">i</text><text xml:space="preserve" font-family="Soria-Soria" font-size="68.0" fill="#EBCCD4" transform="matrix(1.00, 0.00, -0.00, -1.00, 526.1, 469.0)">r</text><text xml:space="preserve" font-family="Soria-Soria" font-size="68.0" fill="#EBCCD4" transform="matrix(1.00, 0.00, -0.00, -1.00, 550.9, 469.0)">o</text><text xml:space="preserve" font-family="Soria-Soria" font-size="68.0" fill="#EBCCD4" transform="matrix(1.00, 0.00, -0.00, -1.00, 577.1, 469.0)">n</text><text xml:space="preserve" font-family="Soria-Soria" font-size="68.0" fill="#EBCCD4" transform="matrix(1.00, 0.00, -0.00, -1.00, 606.8, 469.0)">m</text><text xml:space="preserve" font-family="Soria-Soria" font-size="68.0" fill="#EBCCD4" transform="matrix(1.00, 0.00, -0.00, -1.00, 651.5, 469.0)">e</text><text xml:space="preserve" font-family="Soria-Soria" font-size="68.0" fill="#EBCCD4" transform="matrix(1.00, 0.00, -0.00, -1.00, 677.7, 469.0)">n</text><text xml:space="preserve" font-family="Soria-Soria" font-size="68.0" fill="#EBCCD4" transform="matrix(1.00, 0.00, -0.00, -1.00, 705.3, 469.0)">t</text><text xml:space="preserve" font-family="Soria-Soria" font-size="68.0" fill="#EBCCD4" transform="matrix(1.00, 0.00, -0.00, -1.00, 722.3, 469.0)">”</text><text xml:space="preserve" font-family="Soria-Soria" font-size="68.0" fill="#EBCCD4" transform="matrix(1.00, 0.00, -0.00, -1.00, 737.3, 469.0)"> </text><text xml:space="preserve" font-family="Futura-Medium" font-size="36.0" fill="#EBCCD4" transform="matrix(1.00, 0.00, -0.00, -1.00, 532.0, 33.0)">E</text><text xml:space="preserve" font-family="Futura-Medium" font-size="36.0" fill="#EBCCD4" transform="matrix(1.00, 0.00, -0.00, -1.00, 552.4, 33.0)">m</text><text xml:space="preserve" font-family="Futura-Medium" font-size="36.0" fill="#EBCCD4" transform="matrix(1.00, 0.00, -0.00, -1.00, 580.8, 33.0)">i</text><text xml:space="preserve" font-family="Futura-Medium" font-size="36.0" fill="#EBCCD4" transform="matrix(1.00, 0.00, -0.00, -1.00, 589.8, 33.0)">l</text><text xml:space="preserve" font-family="Futura-Medium" font-size="36.0" fill="#EBCCD4" transform="matrix(1.00, 0.00, -0.00, -1.00, 599.1, 33.0)">y</text><text xml:space="preserve" font-family="Futura-Medium" font-size="36.0" fill="#EBCCD4" transform="matrix(1.00, 0.00, -0.00, -1.00, 618.7, 33.0)"> </text><text xml:space="preserve" font-family="Futura-Medium" font-size="36.0" fill="#EBCCD4" transform="matrix(1.00, 0.00, -0.00, -1.00, 629.8, 33.0)">P</text><text xml:space="preserve" font-family="Futura-Medium" font-size="36.0" fill="#EBCCD4" transform="matrix(1.00, 0.00, -0.00, -1.00, 649.2, 33.0)">l</text><text xml:space="preserve" font-family="Futura-Medium" font-size="36.0" fill="#EBCCD4" transform="matrix(1.00, 0.00, -0.00, -1.00, 658.2, 33.0)">u</text><text xml:space="preserve" font-family="Futura-Medium" font-size="36.0" fill="#EBCCD4" transform="matrix(1.00, 0.00, -0.00, -1.00, 677.8, 33.0)">m</text><text xml:space="preserve" font-family="Futura-Medium" font-size="36.0" fill="#EBCCD4" transform="matrix(1.00, 0.00, -0.00, -1.00, 706.3, 33.0)">m</text><text xml:space="preserve" font-family="Futura-Medium" font-size="36.0" fill="#EBCCD4" transform="matrix(1.00, 0.00, -0.00, -1.00, 734.7, 33.0)">e</text><text xml:space="preserve" font-family="Futura-Medium" font-size="36.0" fill="#EBCCD4" transform="matrix(1.00, 0.00, -0.00, -1.00, 754.7, 33.0)">r</text><text xml:space="preserve" font-family="Futura-Medium" font-size="36.0" fill="#EBCCD4" transform="matrix(1.00, 0.00, -0.00, -1.00, 768.1, 33.0)"> </text><text xml:space="preserve" font-family="Futura-Medium" font-size="36.0" fill="#EBCCD4" transform="matrix(1.00, 0.00, -0.00, -1.00, 779.2, 33.0)">-</text><text xml:space="preserve" font-family="Futura-Medium" font-size="36.0" fill="#EBCCD4" transform="matrix(1.00, 0.00, -0.00, -1.00, 787.1, 33.0)"> </text><text xml:space="preserve" font-family="Futura-Medium" font-size="36.0" fill="#EBCCD4" transform="matrix(1.00, 0.00, -0.00, -1.00, 798.2, 33.0)">@</text><text xml:space="preserve" font-family="Futura-Medium" font-size="36.0" fill="#EBCCD4" transform="matrix(1.00, 0.00, -0.00, -1.00, 829.9, 33.0)">e</text><text xml:space="preserve" font-family="Futura-Medium" font-size="36.0" fill="#EBCCD4" transform="matrix(1.00, 0.00, -0.00, -1.00, 849.8, 33.0)">m</text><text xml:space="preserve" font-family="Futura-Medium" font-size="36.0" fill="#EBCCD4" transform="matrix(1.00, 0.00, -0.00, -1.00, 878.7, 33.0)">p</text><text xml:space="preserve" font-family="Futura-Medium" font-size="36.0" fill="#EBCCD4" transform="matrix(1.00, 0.00, -0.00, -1.00, 900.3, 33.0)">l</text><text xml:space="preserve" font-family="Futura-Medium" font-size="36.0" fill="#EBCCD4" transform="matrix(1.00, 0.00, -0.00, -1.00, 909.2, 33.0)">u</text><text xml:space="preserve" font-family="Futura-Medium" font-size="36.0" fill="#EBCCD4" transform="matrix(1.00, 0.00, -0.00, -1.00, 928.9, 33.0)">m</text><text xml:space="preserve" font-family="Futura-Medium" font-size="36.0" fill="#EBCCD4" transform="matrix(1.00, 0.00, -0.00, -1.00, 957.3, 33.0)">s</text></g></svg>