<?xml version="1.0" encoding="UTF-8"?><svg xmlns="http://www.w3.org/2000/svg" xmlns:xlink="http://www.w3.org/1999/xlink" clip-rule="evenodd" stroke-miterlimit="4.00" viewBox="0 0 1024 768"><desc>SVG generated by Keynote</desc><defs></defs><g transform="matrix(1.00, 0.00, -0.00, -1.00, 0.0, 768.0)"><path d="M 0.0 0.0 L 1024.0 0.0 L 1024.0 768.0 L 0.0 768.0 Z M 0.0 0.0 " fill="#213A5E"></path><text xml:space="preserve" font-family="Futura-Medium" font-size="36.0" fill="#EBCCD4" transform="matrix(1.00, 0.00, -0.00, -1.00, 532.0, 33.0)">E</text><text xml:space="preserve" font-family="Futura-Medium" font-size="36.0" fill="#EBCCD4" transform="matrix(1.00, 0.00, -0.00, -1.00, 552.4, 33.0)">m</text><text xml:space="preserve" font-family="Futura-Medium" font-size="36.0" fill="#EBCCD4" transform="matrix(1.00, 0.00, -0.00, -1.00, 580.8, 33.0)">i</text><text xml:space="preserve" font-family="Futura-Medium" font-size="36.0" fill="#EBCCD4" transform="matrix(1.00, 0.00, -0.00, -1.00, 589.8, 33.0)">l</text><text xml:space="preserve" font-family="Futura-Medium" font-size="36.0" fill="#EBCCD4" transform="matrix(1.00, 0.00, -0.00, -1.00, 599.1, 33.0)">y</text><text xml:space="preserve" font-family="Futura-Medium" font-size="36.0" fill="#EBCCD4" transform="matrix(1.00, 0.00, -0.00, -1.00, 618.7, 33.0)"> </text><text xml:space="preserve" font-family="Futura-Medium" font-size="36.0" fill="#EBCCD4" transform="matrix(1.00, 0.00, -0.00, -1.00, 629.8, 33.0)">P</text><text xml:space="preserve" font-family="Futura-Medium" font-size="36.0" fill="#EBCCD4" transform="matrix(1.00, 0.00, -0.00, -1.00, 649.2, 33.0)">l</text><text xml:space="preserve" font-family="Futura-Medium" font-size="36.0" fill="#EBCCD4" transform="matrix(1.00, 0.00, -0.00, -1.00, 658.2, 33.0)">u</text><text xml:space="preserve" font-family="Futura-Medium" font-size="36.0" fill="#EBCCD4" transform="matrix(1.00, 0.00, -0.00, -1.00, 677.8, 33.0)">m</text><text xml:space="preserve" font-family="Futura-Medium" font-size="36.0" fill="#EBCCD4" transform="matrix(1.00, 0.00, -0.00, -1.00, 706.3, 33.0)">m</text><text xml:space="preserve" font-family="Futura-Medium" font-size="36.0" fill="#EBCCD4" transform="matrix(1.00, 0.00, -0.00, -1.00, 734.7, 33.0)">e</text><text xml:space="preserve" font-family="Futura-Medium" font-size="36.0" fill="#EBCCD4" transform="matrix(1.00, 0.00, -0.00, -1.00, 754.7, 33.0)">r</text><text xml:space="preserve" font-family="Futura-Medium" font-size="36.0" fill="#EBCCD4" transform="matrix(1.00, 0.00, -0.00, -1.00, 768.1, 33.0)"> </text><text xml:space="preserve" font-family="Futura-Medium" font-size="36.0" fill="#EBCCD4" transform="matrix(1.00, 0.00, -0.00, -1.00, 779.2, 33.0)">-</text><text xml:space="preserve" font-family="Futura-Medium" font-size="36.0" fill="#EBCCD4" transform="matrix(1.00, 0.00, -0.00, -1.00, 787.1, 33.0)"> </text><text xml:space="preserve" font-family="Futura-Medium" font-size="36.0" fill="#EBCCD4" transform="matrix(1.00, 0.00, -0.00, -1.00, 798.2, 33.0)">@</text><text xml:space="preserve" font-family="Futura-Medium" font-size="36.0" fill="#EBCCD4" transform="matrix(1.00, 0.00, -0.00, -1.00, 829.9, 33.0)">e</text><text xml:space="preserve" font-family="Futura-Medium" font-size="36.0" fill="#EBCCD4" transform="matrix(1.00, 0.00, -0.00, -1.00, 849.8, 33.0)">m</text><text xml:space="preserve" font-family="Futura-Medium" font-size="36.0" fill="#EBCCD4" transform="matrix(1.00, 0.00, -0.00, -1.00, 878.7, 33.0)">p</text><text xml:space="preserve" font-family="Futura-Medium" font-size="36.0" fill="#EBCCD4" transform="matrix(1.00, 0.00, -0.00, -1.00, 900.3, 33.0)">l</text><text xml:space="preserve" font-family="Futura-Medium" font-size="36.0" fill="#EBCCD4" transform="matrix(1.00, 0.00, -0.00, -1.00, 909.2, 33.0)">u</text><text xml:space="preserve" font-family="Futura-Medium" font-size="36.0" fill="#EBCCD4" transform="matrix(1.00, 0.00, -0.00, -1.00, 928.9, 33.0)">m</text><text xml:space="preserve" font-family="Futura-Medium" font-size="36.0" fill="#EBCCD4" transform="matrix(1.00, 0.00, -0.00, -1.00, 957.3, 33.0)">s</text><text xml:space="preserve" font-family="Soria-Soria" font-size="396.0" fill="#EBCCD4" transform="matrix(1.00, 0.00, -0.00, -1.00, 218.0, 390.0)">1</text><text xml:space="preserve" font-family="Soria-Soria" font-size="396.0" fill="#EBCCD4" transform="matrix(1.00, 0.00, -0.00, -1.00, 329.3, 390.0)">0</text><text xml:space="preserve" font-family="LucidaGrande" font-size="396.0" fill="#EBCCD4" transform="matrix(1.00, 0.00, -0.00, -1.00, 523.3, 390.0)">%</text><text xml:space="preserve" font-family="Futura-Medium" font-size="36.0" fill="#EBCCD4" transform="matrix(1.00, 0.00, -0.00, -1.00, 206.0, 306.0)">o</text><text xml:space="preserve" font-family="Futura-Medium" font-size="36.0" fill="#EBCCD4" transform="matrix(1.00, 0.00, -0.00, -1.00, 227.6, 306.0)">f</text><text xml:space="preserve" font-family="Futura-Medium" font-size="36.0" fill="#EBCCD4" transform="matrix(1.00, 0.00, -0.00, -1.00, 238.3, 306.0)"> </text><text xml:space="preserve" font-family="Futura-Medium" font-size="36.0" fill="#EBCCD4" transform="matrix(1.00, 0.00, -0.00, -1.00, 249.4, 306.0)">p</text><text xml:space="preserve" font-family="Futura-Medium" font-size="36.0" fill="#EBCCD4" transform="matrix(1.00, 0.00, -0.00, -1.00, 271.0, 306.0)">e</text><text xml:space="preserve" font-family="Futura-Medium" font-size="36.0" fill="#EBCCD4" transform="matrix(1.00, 0.00, -0.00, -1.00, 290.9, 306.0)">o</text><text xml:space="preserve" font-family="Futura-Medium" font-size="36.0" fill="#EBCCD4" transform="matrix(1.00, 0.00, -0.00, -1.00, 312.6, 306.0)">p</text><text xml:space="preserve" font-family="Futura-Medium" font-size="36.0" fill="#EBCCD4" transform="matrix(1.00, 0.00, -0.00, -1.00, 334.1, 306.0)">l</text><text xml:space="preserve" font-family="Futura-Medium" font-size="36.0" fill="#EBCCD4" transform="matrix(1.00, 0.00, -0.00, -1.00, 343.1, 306.0)">e</text><text xml:space="preserve" font-family="Futura-Medium" font-size="36.0" fill="#EBCCD4" transform="matrix(1.00, 0.00, -0.00, -1.00, 363.0, 306.0)"> </text><text xml:space="preserve" font-family="Futura-Medium" font-size="36.0" fill="#EBCCD4" transform="matrix(1.00, 0.00, -0.00, -1.00, 374.1, 306.0)">n</text><text xml:space="preserve" font-family="Futura-Medium" font-size="36.0" fill="#EBCCD4" transform="matrix(1.00, 0.00, -0.00, -1.00, 393.9, 306.0)">e</text><text xml:space="preserve" font-family="Futura-Medium" font-size="36.0" fill="#EBCCD4" transform="matrix(1.00, 0.00, -0.00, -1.00, 413.8, 306.0)">e</text><text xml:space="preserve" font-family="Futura-Medium" font-size="36.0" fill="#EBCCD4" transform="matrix(1.00, 0.00, -0.00, -1.00, 433.7, 306.0)">d</text><text xml:space="preserve" font-family="Futura-Medium" font-size="36.0" fill="#EBCCD4" transform="matrix(1.00, 0.00, -0.00, -1.00, 455.3, 306.0)"> </text><text xml:space="preserve" font-family="Futura-Medium" font-size="36.0" fill="#EBCCD4" transform="matrix(1.00, 0.00, -0.00, -1.00, 466.4, 306.0)">a</text><text xml:space="preserve" font-family="Futura-Medium" font-size="36.0" fill="#EBCCD4" transform="matrix(1.00, 0.00, -0.00, -1.00, 487.9, 306.0)">c</text><text xml:space="preserve" font-family="Futura-Medium" font-size="36.0" fill="#EBCCD4" transform="matrix(1.00, 0.00, -0.00, -1.00, 505.1, 306.0)">c</text><text xml:space="preserve" font-family="Futura-Medium" font-size="36.0" fill="#EBCCD4" transform="matrix(1.00, 0.00, -0.00, -1.00, 522.2, 306.0)">e</text><text xml:space="preserve" font-family="Futura-Medium" font-size="36.0" fill="#EBCCD4" transform="matrix(1.00, 0.00, -0.00, -1.00, 542.2, 306.0)">s</text><text xml:space="preserve" font-family="Futura-Medium" font-size="36.0" fill="#EBCCD4" transform="matrix(1.00, 0.00, -0.00, -1.00, 556.8, 306.0)">s</text><text xml:space="preserve" font-family="Futura-Medium" font-size="36.0" fill="#EBCCD4" transform="matrix(1.00, 0.00, -0.00, -1.00, 571.4, 306.0)">i</text><text xml:space="preserve" font-family="Futura-Medium" font-size="36.0" fill="#EBCCD4" transform="matrix(1.00, 0.00, -0.00, -1.00, 580.3, 306.0)">b</text><text xml:space="preserve" font-family="Futura-Medium" font-size="36.0" fill="#EBCCD4" transform="matrix(1.00, 0.00, -0.00, -1.00, 601.9, 306.0)">l</text><text xml:space="preserve" font-family="Futura-Medium" font-size="36.0" fill="#EBCCD4" transform="matrix(1.00, 0.00, -0.00, -1.00, 610.9, 306.0)">e</text><text xml:space="preserve" font-family="Futura-Medium" font-size="36.0" fill="#EBCCD4" transform="matrix(1.00, 0.00, -0.00, -1.00, 630.8, 306.0)"> </text><text xml:space="preserve" font-family="Futura-Medium" font-size="36.0" fill="#EBCCD4" transform="matrix(1.00, 0.00, -0.00, -1.00, 641.9, 306.0)">w</text><text xml:space="preserve" font-family="Futura-Medium" font-size="36.0" fill="#EBCCD4" transform="matrix(1.00, 0.00, -0.00, -1.00, 669.2, 306.0)">e</text><text xml:space="preserve" font-family="Futura-Medium" font-size="36.0" fill="#EBCCD4" transform="matrix(1.00, 0.00, -0.00, -1.00, 689.1, 306.0)">b</text><text xml:space="preserve" font-family="Futura-Medium" font-size="36.0" fill="#EBCCD4" transform="matrix(1.00, 0.00, -0.00, -1.00, 710.7, 306.0)">s</text><text xml:space="preserve" font-family="Futura-Medium" font-size="36.0" fill="#EBCCD4" transform="matrix(1.00, 0.00, -0.00, -1.00, 725.3, 306.0)">i</text><text xml:space="preserve" font-family="Futura-Medium" font-size="36.0" fill="#EBCCD4" transform="matrix(1.00, 0.00, -0.00, -1.00, 734.2, 306.0)">t</text><text xml:space="preserve" font-family="Futura-Medium" font-size="36.0" fill="#EBCCD4" transform="matrix(1.00, 0.00, -0.00, -1.00, 744.4, 306.0)">e</text><text xml:space="preserve" font-family="Futura-Medium" font-size="36.0" fill="#EBCCD4" transform="matrix(1.00, 0.00, -0.00, -1.00, 764.3, 306.0)">s</text><text xml:space="preserve" font-family="Futura-Medium" font-size="36.0" fill="#EBCCD4" transform="matrix(1.00, 0.00, -0.00, -1.00, 778.9, 306.0)"> </text><text xml:space="preserve" font-family="Futura-Medium" font-size="36.0" fill="#EBCCD4" transform="matrix(1.00, 0.00, -0.00, -1.00, 790.0, 306.0)">i</text><text xml:space="preserve" font-family="Futura-Medium" font-size="36.0" fill="#EBCCD4" transform="matrix(1.00, 0.00, -0.00, -1.00, 799.0, 306.0)">n</text><text xml:space="preserve" font-family="Futura-Medium" font-size="36.0" fill="#EBCCD4" transform="matrix(1.00, 0.00, -0.00, -1.00, 818.8, 306.0)"> </text><text xml:space="preserve" font-family="Futura-Medium" font-size="36.0" fill="#EBCCD4" transform="matrix(1.00, 0.00, -0.00, -1.00, 338.0, 259.0)">o</text><text xml:space="preserve" font-family="Futura-Medium" font-size="36.0" fill="#EBCCD4" transform="matrix(1.00, 0.00, -0.00, -1.00, 359.6, 259.0)">r</text><text xml:space="preserve" font-family="Futura-Medium" font-size="36.0" fill="#EBCCD4" transform="matrix(1.00, 0.00, -0.00, -1.00, 372.9, 259.0)">d</text><text xml:space="preserve" font-family="Futura-Medium" font-size="36.0" fill="#EBCCD4" transform="matrix(1.00, 0.00, -0.00, -1.00, 394.4, 259.0)">e</text><text xml:space="preserve" font-family="Futura-Medium" font-size="36.0" fill="#EBCCD4" transform="matrix(1.00, 0.00, -0.00, -1.00, 414.4, 259.0)">r</text><text xml:space="preserve" font-family="Futura-Medium" font-size="36.0" fill="#EBCCD4" transform="matrix(1.00, 0.00, -0.00, -1.00, 427.8, 259.0)"> </text><text xml:space="preserve" font-family="Futura-Medium" font-size="36.0" fill="#EBCCD4" transform="matrix(1.00, 0.00, -0.00, -1.00, 438.9, 259.0)">t</text><text xml:space="preserve" font-family="Futura-Medium" font-size="36.0" fill="#EBCCD4" transform="matrix(1.00, 0.00, -0.00, -1.00, 449.0, 259.0)">o</text><text xml:space="preserve" font-family="Futura-Medium" font-size="36.0" fill="#EBCCD4" transform="matrix(1.00, 0.00, -0.00, -1.00, 470.7, 259.0)"> </text><text xml:space="preserve" font-family="Futura-Medium" font-size="36.0" fill="#EBCCD4" transform="matrix(1.00, 0.00, -0.00, -1.00, 481.8, 259.0)">u</text><text xml:space="preserve" font-family="Futura-Medium" font-size="36.0" fill="#EBCCD4" transform="matrix(1.00, 0.00, -0.00, -1.00, 501.4, 259.0)">s</text><text xml:space="preserve" font-family="Futura-Medium" font-size="36.0" fill="#EBCCD4" transform="matrix(1.00, 0.00, -0.00, -1.00, 516.0, 259.0)">e</text><text xml:space="preserve" font-family="Futura-Medium" font-size="36.0" fill="#EBCCD4" transform="matrix(1.00, 0.00, -0.00, -1.00, 535.9, 259.0)"> </text><text xml:space="preserve" font-family="Futura-Medium" font-size="36.0" fill="#EBCCD4" transform="matrix(1.00, 0.00, -0.00, -1.00, 547.0, 259.0)">t</text><text xml:space="preserve" font-family="Futura-Medium" font-size="36.0" fill="#EBCCD4" transform="matrix(1.00, 0.00, -0.00, -1.00, 557.6, 259.0)">h</text><text xml:space="preserve" font-family="Futura-Medium" font-size="36.0" fill="#EBCCD4" transform="matrix(1.00, 0.00, -0.00, -1.00, 577.3, 259.0)">e</text><text xml:space="preserve" font-family="Futura-Medium" font-size="36.0" fill="#EBCCD4" transform="matrix(1.00, 0.00, -0.00, -1.00, 597.2, 259.0)"> </text><text xml:space="preserve" font-family="Futura-Medium" font-size="36.0" fill="#EBCCD4" transform="matrix(1.00, 0.00, -0.00, -1.00, 608.3, 259.0)">W</text><text xml:space="preserve" font-family="Futura-Medium" font-size="36.0" fill="#EBCCD4" transform="matrix(1.00, 0.00, -0.00, -1.00, 644.4, 259.0)">e</text><text xml:space="preserve" font-family="Futura-Medium" font-size="36.0" fill="#EBCCD4" transform="matrix(1.00, 0.00, -0.00, -1.00, 664.3, 259.0)">b</text></g></svg>